#!OML:ASF H:\ManfredETheater\Project 1\Capture day 1\Session 1\subject.ASF
:FULLY-SPECIFIED
:DEGREES
107
root 2.61402 14.0431 -12.7263 -203.406 -34.1117 -166.722
lowerback 29.4312 -3.27997 3.43417
upperback 5.18329 -4.15511 -0.402318
thorax -10.6185 -2.44127 -0.802181
lowerneck -13.4364 -6.45362 -4.60406
upperneck 14.0034 -8.96369 5.85281
head 6.9646 -4.12376 1.71392
rclavicle -5.60573e-014 -2.70347e-014
rhumerus 7.56633 -37.0603 -1.66502
rradius 90.7483
rwrist -23.7352
rhand -30.4765 -9.39496
rfingers 7.12502
rthumb -3.77764 -39.3412
lclavicle -5.60573e-014 -2.70347e-014
lhumerus -47.8893 16.222 78.8145
lradius 74.5485
lwrist 14.4822
lhand -30.3924 3.81756
lfingers 7.12502
lthumb -3.69643 33.7652
rfemur -40.4996 -7.71745 18.0051
rtibia 70.1725
rfoot -4.00504 -8.53752
rtoes -29.5245
lfemur -49.3377 3.22382 -8.39566
ltibia 89.9666
lfoot -12.0447 -30.9125
ltoes 10.2195
108
root 2.65321 14.0571 -12.999 -203.302 -34.3748 -166.166
lowerback 29.5067 -3.02814 3.9495
upperback 5.24311 -3.64818 -0.094678
thorax -10.5658 -2.22393 -0.941139
lowerneck -13.2681 -6.80362 -4.90827
upperneck 13.8802 -9.38928 5.94247
head 6.93821 -4.33882 1.74965
rclavicle 2.26615e-014 -1.43125e-014
rhumerus 8.76399 -34.322 -3.34995
rradius 90.2935
rwrist -23.4276
rhand -30.3043 -9.65769
rfingers 7.12502
rthumb -3.61131 -39.6068
lclavicle 2.26615e-014 -1.43125e-014
lhumerus -48.2807 16.1405 78.4066
lradius 76.3377
lwrist 14.2324
lhand -30.1015 3.84722
lfingers 7.12502
lthumb -3.41549 33.7996
rfemur -40.7114 -7.81425 18.7356
rtibia 70.8776
rfoot -5.0667 -8.32397
rtoes -29.8342
lfemur -50.5982 3.38173 -9.8342
ltibia 87.4872
lfoot -11.3038 -30.8259
ltoes 10.5417
109
root 2.69137 14.0773 -13.2686 -203.162 -34.7271 -165.68
lowerback 29.5436 -2.77025 4.36794
upperback 5.30313 -3.16418 0.214792
thorax -10.4868 -2.01317 -1.01546
lowerneck -13.0513 -7.14556 -5.21286
upperneck 13.7203 -9.80095 6.01379
head 6.89164 -4.55004 1.78314
rclavicle -1.82882e-014 -4.29375e-014
rhumerus 9.61465 -31.4753 -4.80207
rradius 89.7478
rwrist -23.0573
rhand -30.0795 -9.84602
rfingers 7.12502
rthumb -3.39425 -39.7987
lclavicle -1.82882e-014 -4.29375e-014
lhumerus -48.5657 15.9932 77.8792
lradius 78.3363
lwrist 14.3062
lhand -29.9369 4.06741
lfingers 7.12502
lthumb -3.25652 34.0223
rfemur -40.8693 -7.98081 19.3449
rtibia 71.5197
rfoot -6.11658 -8.00695
rtoes -30.0809
lfemur -51.5482 3.31517 -11.2448
ltibia 84.8141
lfoot -10.4911 -30.1316
ltoes 10.9703
110
root 2.72817 14.1046 -13.5347 -202.984 -35.1634 -165.299
lowerback 29.5408 -2.49737 4.67778
upperback 5.37579 -2.69854 0.520722
thorax -10.3689 -1.8069 -1.02585
lowerneck -12.7952 -7.48626 -5.53069
upperneck 13.5235 -10.2049 6.06482
head 6.8272 -4.76081 1.81513
rclavicle -4.23411e-014 2.70347e-014
rhumerus 10.1636 -28.5873 -6.0563
rradius 89.1241
rwrist -22.7092
rhand -29.6999 -9.93221
rfingers 7.12502
rthumb -3.02765 -39.8905
lclavicle -4.23411e-014 2.70347e-014
lhumerus -48.699 15.7593 77.2411
lradius 80.4866
lwrist 14.7573
lhand -29.9278 4.46256
lfingers 7.12502
lthumb -3.24773 34.4176
rfemur -40.9715 -8.2088 19.7977
rtibia 72.1506
rfoot -7.14583 -7.53323
rtoes -30.3782
lfemur -52.1863 3.05469 -12.5888
ltibia 82.1252
lfoot -9.67845 -28.8932
ltoes 11.8806
111
root 2.76356 14.1387 -13.7958 -202.772 -35.6721 -165.034
lowerback 29.5105 -2.21296 4.89305
upperback 5.46438 -2.25257 0.817794
thorax -10.2178 -1.60644 -0.984917
lowerneck -12.5107 -7.82961 -5.87649
upperneck 13.2993 -10.6074 6.11104
head 6.75197 -4.97328 1.8518
rclavicle 3.02153e-014 3.02153e-014
rhumerus 10.4604 -25.6819 -7.15814
rradius 88.4021
rwrist -22.3551
rhand -29.1858 -9.90089
rfingers 7.12502
rthumb -2.53113 -39.8656
lclavicle 3.02153e-014 3.02153e-014
lhumerus -48.6606 15.448 76.4653
lradius 82.7489
lwrist 15.533
lhand -30.0081 4.98328
lfingers 7.12502
lthumb -3.3253 34.9371
rfemur -41.0312 -8.49758 20.079
rtibia 72.8087
rfoot -8.09568 -6.84132
rtoes -30.905
lfemur -52.5514 2.62513 -13.8236
ltibia 79.6157
lfoot -8.95992 -27.2127
ltoes 13.0635
112
root 2.79735 14.1809 -14.0502 -202.546 -36.2352 -164.872
lowerback 29.4716 -1.92184 5.04435
upperback 5.5712 -1.82356 1.10214
thorax -10.043 -1.41201 -0.914691
lowerneck -12.2003 -8.18101 -6.25378
upperneck 13.0502 -11.0188 6.1667
head 6.66901 -5.19139 1.897
rclavicle -3.06128e-014 2.54444e-014
rhumerus 10.5588 -22.7959 -8.16839
rradius 87.5584
rwrist -22.0096
rhand -28.5719 -9.70954
rfingers 7.12502
rthumb -1.93821 -39.6805
lclavicle -3.06128e-014 2.54444e-014
lhumerus -48.4482 15.0627 75.5224
lradius 85.1071
lwrist 16.5616
lhand -30.1664 5.59519
lfingers 7.12502
lthumb -3.47816 35.5466
rfemur -41.0509 -8.84206 20.1849
rtibia 73.5151
rfoot -8.89084 -5.86018
rtoes -31.736
lfemur -52.688 2.02063 -14.8863
ltibia 77.4645
lfoot -8.37285 -25.1303
ltoes 14.3069
113
root 2.82964 14.23 -14.2973 -202.351 -36.7737 -164.733
lowerback 29.4393 -1.62405 5.21457
upperback 5.69512 -1.38505 1.39339
thorax -9.85308 -1.21448 -0.849745
lowerneck -11.8703 -8.5395 -6.67537
upperneck 12.7723 -11.4399 6.25849
head 6.58104 -5.41406 1.96074
rclavicle 4.77083e-015 -6.36111e-015
rhumerus 10.5139 -19.972 -9.14302
rradius 86.568
rwrist -21.6771
rhand -27.826 -9.48202
rfingers 7.12502
rthumb -1.21788 -39.4583
lclavicle 4.77083e-015 -6.36111e-015
lhumerus -48.051 14.6399 74.3838
lradius 87.5324
lwrist 17.7312
lhand -30.3515 6.21895
lfingers 7.12502
lthumb -3.65695 36.1673
rfemur -41.0716 -9.18545 20.2077
rtibia 74.2887
rfoot -9.44839 -4.54512
rtoes -32.7851
lfemur -52.6645 1.26925 -15.6316
ltibia 75.8175
lfoot -7.85079 -22.8061
ltoes 15.8924
114
root 2.86042 14.284 -14.5374 -202.199 -37.2632 -164.587
lowerback 29.4057 -1.32415 5.42232
upperback 5.84328 -0.939261 1.69865
thorax -9.63582 -1.01556 -0.792074
lowerneck -11.5498 -8.90027 -7.12407
upperneck 12.4733 -11.8641 6.37393
head 6.49383 -5.63734 2.03577
rclavicle 4.49253e-014 1.51076e-014
rhumerus 10.3996 -17.2533 -10.1457
rradius 85.4025
rwrist -21.3211
rhand -27.0415 -9.19803
rfingers 7.12502
rthumb -0.460186 -39.1773
lclavicle 4.49253e-014 1.51076e-014
lhumerus -47.4622 14.2529 73.008
lradius 89.9935
lwrist 18.8943
lhand -30.4788 6.82239
lfingers 7.12502
lthumb -3.7798 36.7686
rfemur -41.1391 -9.52398 20.1701
rtibia 75.1466
rfoot -9.68348 -2.8459
rtoes -33.8262
lfemur -52.5407 0.376241 -16.0206
ltibia 74.7319
lfoot -7.47234 -20.4781
ltoes 17.4051
